<svg width="1024" height="1024" viewBox="0 0 1024 1024" fill="none" xmlns="http://www.w3.org/2000/svg">
<path d="M304.458 660.781C289.594 660.781 277.069 659.267 266.884 656.239C256.699 653.211 248.303 650.32 241.697 647.568C235.366 644.54 229.585 643.026 224.355 643.026C220.226 643.026 216.923 644.54 214.445 647.568C212.243 650.596 210.591 654.862 209.49 660.368H206.187C206.738 654.312 207.151 647.155 207.426 638.897C207.701 630.639 207.839 619.766 207.839 606.277C208.114 592.789 208.252 575.723 208.252 555.077H211.142C213.069 586.733 221.74 611.645 237.155 629.813C252.57 647.981 272.802 657.065 297.852 657.065C316.57 657.065 331.71 651.559 343.271 640.548C354.832 629.538 360.613 614.673 360.613 595.955C360.613 585.219 358.273 575.585 353.594 567.052C349.189 558.518 341.895 550.673 331.71 543.516C321.8 536.359 308.587 529.34 292.071 522.458C273.628 514.475 258.351 505.942 246.239 496.858C234.402 487.774 225.594 477.865 219.813 467.129C214.308 456.118 211.555 444.144 211.555 431.206C211.555 415.791 214.996 402.579 221.877 391.568C228.759 380.557 238.394 372.024 250.781 365.968C263.443 359.912 278.17 356.884 294.961 356.884C308.449 356.884 319.598 358.26 328.406 361.013C337.215 363.766 344.51 366.518 350.29 369.271C356.346 372.024 361.852 373.4 366.806 373.4C370.935 373.4 374.101 372.024 376.303 369.271C378.781 366.518 380.708 362.527 382.084 357.297H384.974C384.424 363.077 384.011 369.546 383.735 376.703C383.46 383.86 383.185 392.944 382.91 403.955C382.91 414.966 382.91 429.142 382.91 446.484H379.606C377.68 420.609 369.559 399.826 355.245 384.135C340.931 368.445 322.763 360.6 300.742 360.6C282.849 360.6 268.811 365.555 258.626 375.465C248.716 385.374 243.761 398.174 243.761 413.865C243.761 423.774 246.101 432.858 250.781 441.116C255.735 449.099 263.718 456.944 274.729 464.652C285.74 472.084 300.467 480.067 318.91 488.6C348.088 501.813 368.596 515.301 380.432 529.065C392.269 542.828 398.187 559.619 398.187 579.439C398.187 604.763 389.791 624.72 373 639.31C356.209 653.624 333.361 660.781 304.458 660.781ZM611.935 655V652.11C624.598 650.458 632.856 647.843 636.71 644.265C640.563 640.411 640.013 634.08 635.058 625.271L602.852 564.574C594.869 549.71 587.161 538.148 579.729 529.89C572.572 521.632 564.727 515.852 556.194 512.548C547.66 509.245 537.338 507.594 525.226 507.594H509.948V504.703H525.226C535.411 504.703 544.082 503.602 551.239 501.4C558.671 499.198 565.415 495.757 571.471 491.077C577.527 486.398 583.583 480.342 589.639 472.91L623.084 432.858C632.994 421.297 639.049 410.561 641.252 400.652C643.454 390.742 642.077 382.759 637.123 376.703C632.168 370.372 623.772 366.656 611.935 365.555V362.665C620.469 362.94 629.415 363.215 638.774 363.49C648.133 363.766 657.355 363.903 666.439 363.903C675.247 363.903 683.092 363.766 689.974 363.49C697.131 363.215 703.325 362.94 708.555 362.665V365.555C699.746 368.032 692.039 371.06 685.432 374.639C678.826 377.942 672.632 382.209 666.852 387.439C661.071 392.669 654.602 399.688 647.445 408.497L574.774 496.032L574.361 491.903C583.996 494.105 592.667 497.684 600.374 502.639C608.082 507.318 615.376 513.925 622.258 522.458C629.14 530.716 636.022 541.314 642.903 554.252L674.284 612.884C679.239 621.968 683.643 629.125 687.497 634.355C691.351 639.31 695.342 643.163 699.471 645.916C703.875 648.394 709.243 650.458 715.574 652.11V655C710.619 654.725 705.252 654.587 699.471 654.587C693.966 654.312 688.323 654.174 682.542 654.174C676.761 653.899 670.843 653.761 664.787 653.761C657.905 653.761 650.748 653.899 643.316 654.174C635.884 654.174 625.424 654.449 611.935 655ZM441.406 655V652.11C452.417 651.284 460.538 650.045 465.768 648.394C470.998 646.467 474.439 643.163 476.09 638.484C477.742 633.529 478.568 626.234 478.568 616.6V401.065C478.568 391.43 477.742 384.273 476.09 379.594C474.439 374.639 470.86 371.198 465.355 369.271C460.125 367.344 452.142 366.105 441.406 365.555V362.665C447.187 362.94 455.032 363.215 464.942 363.49C474.852 363.766 486.413 363.903 499.626 363.903C512.013 363.903 523.161 363.766 533.071 363.49C542.981 363.215 550.963 362.94 557.019 362.665V365.555C546.559 366.105 538.714 367.344 533.484 369.271C528.254 371.198 524.675 374.639 522.748 379.594C521.097 384.273 520.271 391.43 520.271 401.065V616.6C520.271 625.959 521.097 633.116 522.748 638.071C524.675 643.026 528.254 646.467 533.484 648.394C538.714 650.045 546.559 651.284 557.019 652.11V655C550.963 654.725 542.981 654.449 533.071 654.174C523.161 653.899 512.013 653.761 499.626 653.761C486.413 653.761 474.852 653.899 464.942 654.174C455.032 654.449 447.187 654.725 441.406 655Z" fill="black"/>
</svg>
